<?xml version="1.0" encoding="UTF-8" standalone="no"?>
<!-- Created with Inkscape (http://www.inkscape.org/) -->

<svg
   width="40"
   height="40"
   viewBox="0 0 40 40"
   version="1.1"
   id="svg5"
   xml:space="preserve"
   inkscape:version="1.2.2 (b0a8486541, 2022-12-01)"
   sodipodi:docname="pluginIcon.svg"
   xmlns:inkscape="http://www.inkscape.org/namespaces/inkscape"
   xmlns:sodipodi="http://sodipodi.sourceforge.net/DTD/sodipodi-0.dtd"
   xmlns="http://www.w3.org/2000/svg"
   xmlns:svg="http://www.w3.org/2000/svg"><sodipodi:namedview
     id="namedview7"
     pagecolor="#505050"
     bordercolor="#ffffff"
     borderopacity="1"
     inkscape:showpageshadow="0"
     inkscape:pageopacity="0"
     inkscape:pagecheckerboard="1"
     inkscape:deskcolor="#505050"
     inkscape:document-units="px"
     showgrid="false"
     inkscape:zoom="24.402245"
     inkscape:cx="18.809745"
     inkscape:cy="9.7736911"
     inkscape:window-width="2560"
     inkscape:window-height="1380"
     inkscape:window-x="1920"
     inkscape:window-y="32"
     inkscape:window-maximized="1"
     inkscape:current-layer="layer1" /><defs
     id="defs2" /><g
     inkscape:label="Layer 1"
     inkscape:groupmode="layer"
     id="layer1"><path
       d="m 36.227684,39.844741 q -1.556649,0 -2.646303,-1.0468 -1.089655,-1.046832 -1.089655,-2.542289 0,-0.209354 0.04915,-0.512067 0.04915,-0.302715 0.147472,-0.544874 l -9.929772,-5.525008 q -0.491573,0.533666 -1.212548,0.863283 -0.720974,0.329617 -1.474719,0.329617 -1.556648,0 -2.646302,-1.043787 -1.089655,-1.043787 -1.089655,-2.534912 0,-1.491124 1.089655,-2.534911 1.089654,-1.043787 2.646302,-1.043787 0.753745,0 1.441949,0.282528 0.688202,0.282529 1.245318,0.816195 l 9.92978,-5.462225 q -0.09831,-0.221973 -0.147472,-0.499479 -0.04915,-0.277475 -0.04915,-0.53646 0,-1.491124 1.089654,-2.534911 1.089655,-1.043787 2.646304,-1.043787 1.556648,0 2.646302,1.043787 1.089654,1.043787 1.089654,2.534911 0,1.491125 -1.089654,2.534912 -1.089654,1.043787 -2.646302,1.043787 -0.765347,0 -1.464135,-0.235441 -0.698792,-0.23544 -1.190365,-0.769106 l -9.92978,5.273872 q 0.06554,0.251137 0.114701,0.580754 0.04915,0.329616 0.04915,0.556927 0,0.227342 -0.04915,0.470881 -0.04915,0.243572 -0.114701,0.494708 l 9.92978,5.39944 q 0.491573,-0.439489 1.147005,-0.706322 0.65543,-0.266832 1.507491,-0.266832 1.556648,0 2.646302,1.043786 1.089654,1.043787 1.089654,2.534912 0,1.491125 -1.089654,2.534912 -1.089654,1.043786 -2.646302,1.043786 z m 0.0011,-19.839803 q 0.752565,0 1.260525,-0.487676 0.507959,-0.487676 0.507959,-1.208595 0,-0.72092 -0.509106,-1.207497 -0.509106,-0.486577 -1.261705,-0.486577 -0.752599,0 -1.260557,0.487676 -0.50796,0.487676 -0.50796,1.208595 0,0.72092 0.509106,1.207497 0.509106,0.486577 1.261705,0.486577 z m -16.156295,8.978139 q 0.752565,0 1.260525,-0.487676 0.507959,-0.487676 0.507959,-1.208595 0,-0.72092 -0.509106,-1.207497 -0.509106,-0.486577 -1.261705,-0.486577 -0.752599,0 -1.260558,0.487676 -0.507959,0.487676 -0.507959,1.208595 0,0.72092 0.509106,1.207497 0.509106,0.486577 1.261705,0.486577 z m 16.156375,8.978139 q 0.752565,0 1.260525,-0.487676 0.507958,-0.487676 0.507958,-1.208595 0,-0.72092 -0.509106,-1.207498 -0.509106,-0.486578 -1.261705,-0.486578 -0.752598,0 -1.260557,0.487677 -0.50796,0.487676 -0.50796,1.208595 0,0.720919 0.509106,1.207497 0.509107,0.486578 1.261705,0.486578 z m -0.0011,-19.651451 z m -16.156407,8.978139 z m 16.156375,8.978139 z"
       id="path9"
       style="stroke-width:0.0320744" /><path
       d="M 9.7900034,26.408897 9.1547674,22.251641 Q 8.5512944,22.020682 7.8842965,21.624753 7.2172995,21.228824 6.7091115,20.799901 L 2.9612225,22.581582 0.00737758,17.17055 3.4376485,14.564016 q -0.06352,-0.296947 -0.0794,-0.676379 -0.01588,-0.379432 -0.01588,-0.676379 0,-0.296947 0.01588,-0.676379 0.01588,-0.379432 0.0794,-0.676379 L 0.00737758,9.2519656 2.9612225,3.8409336 l 3.747889,1.781681 q 0.508188,-0.428923 1.175185,-0.824852 0.6669979,-0.39593 1.2704709,-0.593894 L 9.7900034,0.01361784 H 15.63417 l 0.635235,4.15725676 q 0.603474,0.230958 1.286352,0.610391 0.682878,0.379432 1.159304,0.841349 l 3.74789,-1.781681 2.953844,5.411032 -3.430271,2.5405454 q 0.06352,0.329941 0.0794,0.709374 0.01588,0.379432 0.01588,0.709373 0,0.329941 -0.01588,0.692876 -0.01588,0.362935 -0.0794,0.692876 l 3.430271,2.57354 -2.953844,5.411032 -3.74789,-1.781681 q -0.508188,0.428923 -1.159304,0.841349 -0.651117,0.412426 -1.286352,0.610391 l -0.635235,4.157256 z m 2.9220836,-8.908406 q 1.715135,0 2.922083,-1.253776 1.206947,-1.253776 1.206947,-3.035457 0,-1.781682 -1.206947,-3.035457 -1.206948,-1.2537764 -2.922083,-1.2537764 -1.715136,0 -2.9220836,1.2537764 -1.206948,1.253775 -1.206948,3.035457 0,1.781681 1.206948,3.035457 1.2069476,1.253776 2.9220836,1.253776 z m 0,-1.979646 q -0.921092,0 -1.572208,-0.676379 -0.651116,-0.676379 -0.651116,-1.633208 0,-0.956829 0.651116,-1.633208 0.651116,-0.676379 1.572208,-0.676379 0.921091,0 1.572207,0.676379 0.651117,0.676379 0.651117,1.633208 0,0.956829 -0.651117,1.633208 -0.651116,0.676379 -1.572207,0.676379 z m 0,-2.309587 z m -1.397518,11.217994 h 2.795036 l 0.444664,-3.69534 q 1.048139,-0.263952 1.985111,-0.824852 0.936972,-0.5609 1.699255,-1.352758 l 3.366748,1.517728 1.270471,-2.375575 -2.985607,-2.276593 q 0.127047,-0.560899 0.206452,-1.105302 0.0794,-0.544403 0.0794,-1.105302 0,-0.5609 -0.06352,-1.105303 -0.06352,-0.544402 -0.222332,-1.105302 l 2.985607,-2.2765924 -1.270471,-2.375576 -3.366748,1.517729 Q 17.508114,7.0083666 16.587023,6.4309706 15.665931,5.8535736 14.554269,5.6886026 L 14.109605,1.9932638 h -2.795036 l -0.444665,3.6953388 q -1.0799006,0.230959 -2.0168736,0.791859 -0.9369719,0.5609 -1.6674929,1.385752 l -3.366747,-1.517729 -1.270471,2.375576 2.985606,2.2765924 q -0.127047,0.5609 -0.206451,1.105302 -0.07941,0.544403 -0.07941,1.105303 0,0.560899 0.07941,1.105302 0.0794,0.544403 0.206451,1.105302 l -2.985606,2.276593 1.270471,2.375575 3.366747,-1.517728 q 0.762283,0.791858 1.6992549,1.352758 0.936972,0.5609 1.9851116,0.824852 z"
       id="path176"
       style="stroke-width:0.0323721" /></g></svg>
